<svg width="588" height="751" viewBox="0 0 588 751" fill="none" xmlns="http://www.w3.org/2000/svg">
<path d="M155.501 228.955C154.477 233.977 153.018 238.979 152.003 244.409C143.21 241.741 134.116 238.655 127.821 231.295C122.02 224.511 118.503 216.893 118.503 207.909C118.503 207.523 118.793 205.37 119.002 204.391C119.248 202.667 119.804 202.341 121.502 201.955C123.41 201.955 123.879 203.096 124 205C127.082 213.493 130.002 216.955 139.002 223.955C139.002 223.955 151.022 223.326 155.997 224.455L155.501 228.955Z" fill="#EA9F8F"/>
<path d="M452 160.955C463.569 160.885 474.841 163.211 485.068 168.726C487.192 169.872 488.965 171.628 491 173.955C491.915 181.102 492.694 188.86 492.596 196.035C492.469 205.395 482.375 210.735 474.982 215C457.509 225.081 444.002 247.23 445 258.5C448.5 269.447 456.325 267.81 469.5 272L482 278C486.019 283.698 491.5 296.5 491.5 302.5C492.11 314.353 486.211 319.154 475.321 324.409C466.148 328.835 456.671 330.139 446.905 331.175C443.506 331.536 440.79 332.924 440.846 337.307C443.031 342.411 448.495 349.874 448.789 355.504C449.369 366.644 449.75 377.804 449.795 388.959C449.834 398.508 449.301 408.057 449.059 417.608C448.706 431.558 448.284 445.509 448.113 459.462C448.056 464.08 448.961 468.707 448.941 473.327C448.835 496.854 450.018 520.334 449.981 543.838C449.964 554.538 449.278 565.235 449.095 575.937C448.932 585.511 449.083 595.596 448.576 605.146C448.084 614.403 447.972 623.178 446.823 632.453C445.434 643.668 440 651.5 433.119 658.691C425.014 669.255 412.279 672.471 400.521 676.324C396.058 677.787 392.101 680.418 387.561 680.907C378.251 681.911 368.456 681.445 359.116 682.26C348.12 683.219 333.626 682.718 322.662 681.124C311.91 679.561 300.858 677.688 290.101 676.164C283.329 675.204 276.96 674.457 270.713 671.215C260.733 666.037 250.239 662.293 239 659.955C238.276 653.094 237.884 646.194 236.5 639.955C235.007 633.222 231.008 627.483 224.078 625.579C219.921 624.437 215.337 625.307 211 624.955C214.052 620.83 216.729 616.843 220 612.955C224.524 610.852 229.106 607.668 233.5 606.455C249.161 602.13 264.576 603.202 279.997 609.455C283.414 610.84 287.003 610.27 288.997 605.955C290.104 603.561 292.787 602.149 294.997 600.455C310.755 588.378 327.272 586.89 345.997 590.955C353.326 594.435 360.958 596.789 368.581 599.936C374.372 602.328 380.158 605.498 385.802 608.101C387.426 608.851 390.02 608.045 391.999 608.026C388.986 601.16 381.989 597.932 375.497 594.468C369.552 591.296 363.991 588.977 357.997 585.955C360.634 583.62 362.849 581.487 365.336 579C365.594 578.742 387.72 560.258 398.234 550.8C401.141 548.184 403.659 541.492 407 539.955L410.497 535.455C413.816 531.959 417 526 417 526C417 526 420.93 522.157 421 521.5C421.5 519 422.207 514.58 420.745 513.096C418.685 511.007 414.639 509.71 411.629 510.003C407.366 510.417 403.079 514.172 399.148 513.689C390.246 512.597 382.641 516.627 374.731 518.632C359.573 522.473 344.554 520.395 329.632 519.332C319.368 518.601 306.224 514.455 299.224 511.455C299.406 509.323 299.043 507.557 299.497 505.488C299.024 496.683 299.775 488.271 297.967 480.02C296.25 472.177 291.903 465.535 283 462.955C283.912 461.362 285.268 459.531 286.497 458.955C292.189 456.285 297.248 452.805 303.284 451.392C328.609 445.459 354.124 441.922 380.098 447.725C382.053 448.162 384.564 446.108 386.816 445.213C385.349 443.725 384.071 441.237 382.383 440.918C374.116 439.352 365.728 437.317 357.405 437.409C344.019 437.559 330.556 438.584 317.302 440.479C304.674 442.286 292.209 445.656 281.45 453.048C277.027 456.087 272.343 459.292 270.948 465.513C269.067 466.56 267.398 467.301 265.777 468.137C259.305 471.473 253.878 475.661 250.836 483C246.934 490.655 247.06 498.015 250.648 505.397C256.186 516.788 265.539 523.341 277.259 527.116C279.058 527.696 280.7 528.765 282.329 529.982C283.997 532.846 285.423 535.687 287.6 537.724C289.597 539.592 292.382 540.636 294.859 541.969C299.903 544.684 304.975 547.35 309.672 550.06C301.931 549.951 294.33 549.756 286.497 549.455C275.262 548.982 265.006 548.594 253.998 547.955C251.804 539.813 249.591 531.906 248 523.955C239.603 489.941 233.5 455.955 227.5 421.455C226.594 416.963 225.286 412.723 224 407.955C219.661 399.194 212.599 394.378 203.38 394.191C186.281 393.845 169.11 394.435 152 393.955C151.338 389.161 150.658 384.295 150 379.955C150.303 372.53 149.931 364.683 151.248 357.343C153.39 350.844 154.809 344.892 157 338.955C157 338.955 158.301 334.559 155.999 333.409C142.937 326.886 124.992 322.262 123.999 304.909C123.73 300.213 123.351 295.665 123 290.973C127.185 282.707 134.261 277.64 142.469 274.185C151.658 270.317 151.714 270.552 151.732 261.125C151.743 256.039 151.931 250.953 152.037 245.026C153.06 239.163 154.072 233.986 155.501 228.955L155.997 224.455C153.959 224.107 146.502 226.955 139.002 223.955C126.502 215.455 124.502 207.455 124 205C123.5 203 123.485 202.207 121.502 201.955C119.804 202.341 119.248 202.667 119.002 204.391C118.468 202.455 122.371 191.9 124 187.955C127.1 180.448 133.111 175.571 139.393 170.994C149.79 163.42 161.848 160.626 175.454 159.895C174.124 157.013 172.947 154.792 172.048 152.463C163.73 130.904 157.031 108.978 153.783 85.9396C151.145 67.2253 151.084 48.8475 156.218 30.6824C159.711 18.3259 166.106 8.32305 178.626 2.45483C189.918 -2.83778 204.398 2.06644 210.879 13.3477C214.347 19.3849 215.575 26.7553 217.5 33.9548C216.762 34.8153 215.977 34.9306 215.979 35.2783C216.043 45.5558 215.757 55.8591 216.41 66.102C216.976 74.9929 218.513 83.8311 219.853 92.6572C220.194 94.9021 223 99.9548 223 99.9548C223 99.9548 228.485 95.7513 231 93.9548C236.686 92.5855 242.609 91.0325 248.348 89.9434C251.852 89.2785 255.609 89.5745 260 89.4548C263.262 90.1637 265.603 90.5223 268.123 91.4549C273.628 94.8811 278.002 97.4548 280.502 90.4548C281.502 81.4548 270.776 75.6426 264.999 68.9095C258.338 61.1453 260.369 51.652 258.989 42.863C263.564 34.4678 271.389 31.3944 280.194 30.0947C297.982 27.4692 312.858 34.9231 327.248 43.9225C342.055 53.1827 354.706 64.6317 363.901 79.6845C366.77 84.3797 370.13 88.7743 373.707 93.9457C373.707 83.4535 374.033 73.9772 373.633 64.5317C373 49.6125 371.364 34.5905 376.127 20.101C382.648 0.261459 406.959 -6.52872 422.676 7.19286C435.728 18.5868 441.862 36.4878 445.5 52.9548C444.775 53.9297 443.879 54.2555 443.874 54.7698C443.777 64.9596 443.844 75.1516 443.687 85.3402C443.582 92.133 443.173 98.9211 442.907 105.712C442.592 113.766 442.55 121.842 441.903 129.87C441.132 139.432 439.772 148.946 438.881 158.5C438.78 159.579 440.362 161.911 440.999 161.909C444.729 161.903 448.271 161.293 452 160.955ZM195 75.9548C193.239 70.9234 189.998 63.7099 183.994 63.1079C175.636 62.2699 172.999 76.9095 172.999 76.9095C173.908 84.4294 174.111 93.4049 176.171 100.729C179.434 112.329 182.702 123.928 186.054 135.503C187.158 139.318 189.423 139.594 192.333 137.198C194.243 135.625 196.067 133.899 198.152 132.598C201.291 130.641 205.866 122.484 204.999 118.909C202.551 108.811 199.606 99.8527 197 88.9548C196.315 84.8942 195.7 80.7674 195 75.9548ZM420 75.9548C418.696 68.9678 415.972 64.7776 409.499 63.4095C404.898 62.4371 400.933 64.9524 399.039 68.5602C397.602 71.2981 397.764 73.8592 396.999 77.9095C397.306 82.9648 397.734 87.9161 397.999 93.9095C398.012 103.363 397.771 113.844 397.71 123.297C397.69 126.408 398.545 128.559 401.685 129.946C406.619 132.127 411.658 134.919 416.492 137.332C417.746 137.957 419.127 138.327 420.449 138.815C424.668 126.832 421.502 111.455 422 97.9548C421.392 90.9934 420.631 83.7318 420 75.9548Z" fill="#FFD8AF"/>
<path d="M30.54 570.059C28.6652 562.213 26.5776 554.41 24.9576 546.512C20.965 527.046 17.1667 507.539 13.3284 488.042C8.84349 465.259 4.13886 442.514 0.163518 419.642C-0.603084 415.231 1.49196 410.368 2.99896 405.409C8.32273 404.785 13.0125 404.079 17.6391 404.073C74.8019 404.004 131.965 404.076 189.128 403.955C194.629 403.944 199.21 405.515 203.291 408.994C206.396 411.641 209.704 413.906 213 416.909C221.458 463.457 227.737 510.611 239.638 556.455C239.6 569.328 234.942 573.979 222.47 574.029C221.304 574.034 220.137 574.023 218.971 574.023C178.583 574.031 138.195 574.039 97.807 574.046C80.4272 574.048 63.0472 574.002 45.6677 574.076C41.5808 574.094 37.7525 573.962 34.5863 570.734C33.8123 569.945 31.9187 570.254 30.54 570.059ZM97.6274 490.131C97.4835 498.611 101.152 505.494 106.858 511.378C109.748 514.358 113.428 516.542 117.594 514.428C121.054 512.673 123.931 512.614 127.473 514.161C132.043 516.157 136.026 514.387 138.688 510.356C140.914 506.985 144.199 503.079 141.219 499.117C136.571 492.938 134.566 487.231 140.61 481.154C134.938 474.577 128.809 473.183 121.317 476.209C119.757 476.839 117.655 477.201 116.138 476.691C105.141 472.995 97.9776 477.757 97.6274 490.131ZM116.827 473.06C118.656 472.585 120.697 472.475 122.276 471.565C126.959 468.865 128.296 465.141 127.086 459.438C118.762 458.817 114.502 467.955 116.827 473.06Z" fill="#A8A3A7"/>
<path d="M55.499 386.91C55.5501 386.659 55.7927 386.432 56.2915 385.855C59.9658 381.423 62.9568 377.577 66.499 373.409C74.8992 366.267 84.0326 360.38 94.4952 357.446C104.163 354.735 114.271 355.104 123.999 356.909L124.499 357.41C125.49 359.783 125.803 362.042 126.944 363.666C134.081 373.826 141.207 383.814 147.999 393.909C117.53 393.913 87.5081 394.351 57.499 393.955C56.8253 391.495 56.1687 388.989 55.499 386.91Z" fill="#FFD8AF"/>
<path d="M57.499 393.955C87.5042 393.97 117.144 393.892 147.999 393.909C149.618 393.895 151.232 393.972 152 393.955C169.106 393.981 185.944 393.754 203.043 394.101C212.262 394.288 220.005 399.09 224 407.955C220.179 411.387 216.483 413.933 213 416.909C209.896 414.262 206.396 411.641 203.291 408.994C199.21 405.515 194.629 403.944 189.128 403.955C131.965 404.076 74.8019 404.004 17.6391 404.073C13.0125 404.079 8.05641 405.03 2.99896 405.409C6.15156 397.044 14.0104 394.628 21.892 394.152C31.45 393.575 41.5089 393.963 52.002 393.955C54.6523 393.955 55.7503 393.971 57.499 393.955Z" fill="#BEB2BD"/>
<path d="M123.999 356.909C114.412 355.411 104.163 354.735 94.4952 357.446C84.0326 360.38 75.2786 366.399 66.499 373.409C59.5418 367.673 59.293 359.304 57.6695 351.874C57.3737 350.519 56.644 349.187 55.999 347.909C61.3282 332.532 75.4899 325.058 91.8064 330.312C105.474 334.713 116.838 343.715 123.999 356.909Z" fill="#6A4C50"/>
<path d="M452 160.955C452 160.955 444.729 161.903 440.999 161.909C440.362 161.911 438.78 159.579 438.881 158.5C439.772 148.946 441.132 139.432 441.903 129.87C442.55 121.842 442.592 113.766 442.907 105.712C443.173 98.9211 443.582 92.133 443.687 85.3402C443.844 75.1516 443.777 64.9596 443.874 54.7698C443.879 54.2555 444.809 53.5331 445.5 52.9548C452.817 76.844 454.43 101.59 453.607 126.388C453.234 137.619 452.572 149.3 452 160.955Z" fill="#EA9F8F"/>
<path d="M231 93.9548C228.548 96.1683 223 99.9548 223 99.9548C223 99.9548 220.194 94.9021 219.853 92.6572C218.513 83.8311 216.976 74.9929 216.41 66.102C215.757 55.8591 216.043 45.5558 215.979 35.2783C215.977 34.9306 216.783 34.4075 217.5 33.9548C220.87 47.2378 223.671 60.7942 226.648 74.1812C228.046 80.469 229.549 87.2479 231 93.9548Z" fill="#EA9F8F"/>
<path d="M267.999 91.4095C265.546 90.8353 262.806 90.1776 260 89.4548C253.348 79.5054 248.729 68.3377 251.999 55.9095C254.013 57.8197 256.577 60.4995 257.119 62.9912C259.015 71.7117 263.697 78.2748 270.61 83.6638C273.094 85.6001 277.368 86.026 277.368 91.0064C277.368 94.7892 271.186 91.4095 267.999 91.4095Z" fill="#EA9F8F"/>
<path d="M152 393.955L147.999 393.909C140.357 383.811 134.081 373.826 126.944 363.666C125.803 362.042 125.193 359.717 124.499 357.41C130.314 355.321 133.055 360.253 135.997 363.374C140.77 368.437 145.389 374.288 150 379.955C150.834 384.58 151.338 389.161 152 393.955Z" fill="#EA9F8F"/>
<path d="M55.999 347.909C56.8641 348.91 57.3746 350.52 57.6704 351.874C59.2938 359.305 59.8573 367.61 66.499 373.409C63.6516 377.646 59.8263 381.78 56.2915 385.855C51.2944 373.624 51.3449 360.58 55.999 347.909Z" fill="#542F3F"/>
<path d="M268 91.4095C271.119 91.0511 277.368 94.8897 277.368 91.0064C277.368 86.026 273.094 85.6001 270.61 83.6638C263.697 78.2748 259.015 71.7117 257.119 62.9912C256.577 60.4995 253.911 58.2203 251.999 55.9095C250.624 52.4108 257.334 45.51 258.999 42.9095C260.678 51.5165 262.499 64.9095 264.999 68.9095C270.776 75.6426 281.514 81.3467 280.502 90.4548C278.002 97.4548 273.504 94.8356 268 91.4095Z" fill="#FDC5A6"/>
<path fill-rule="evenodd" clip-rule="evenodd" d="M91.0835 597.595C97.0681 595.115 103.105 595.035 109.127 594.957C113.434 594.9 117.732 594.844 121.999 593.91C123.762 593.524 125.377 592.668 126.999 591.91C127.002 590.455 123.315 589.456 122.32 588.958C119.248 588.908 102.041 588.913 102.041 588.913C98.8682 590.349 95.7605 591.733 92.3949 592.638C87.0937 594.065 82.0163 595.431 78.9991 600.91C68.1926 602.07 57.8002 605.092 49.1208 610.987C41.9153 615.882 34.8886 621.531 34.9993 631.41C37.6775 630.151 40.6583 628.619 42.999 627.41C44.9098 624.898 45.839 621.588 48.3078 619.885C58.8207 612.63 71.2218 608.35 83.9991 605.91C85.002 603.455 85.9212 599.734 91.0835 597.595Z" fill="#EA9F8F"/>
<path fill-rule="evenodd" clip-rule="evenodd" d="M118.408 307.72C117.905 306.684 116.947 305.896 115.999 305.409C115.614 310.266 115.508 315.264 115.026 320.099C114.5 323.17 115.646 326.967 116.499 329.909C122.732 345.821 135.311 354.331 151.248 357.343C152.546 353.585 153.879 349.44 154.946 345.779C155.619 343.469 156.288 341.224 157 338.955C154.786 337.759 151.834 336.198 150 338.455C143.535 337.03 136.497 334.475 133.576 332.345C130.766 330.296 129.484 329.935 127.718 326.423C127.718 326.423 120.452 311.926 118.408 307.72Z" fill="#EA9F8F"/>
<path d="M57.499 393.955C57.499 393.955 54.1924 393.964 52.002 393.955C52.7261 391.705 54.0258 389.296 55.499 386.91C56.4759 388.827 56.8253 391.495 57.499 393.955Z" fill="#EA9F8F"/>
<path fill-rule="evenodd" clip-rule="evenodd" d="M283.502 225.455C264.799 222.5 228.647 211.772 213.352 190.955C213.352 190.955 206.199 196.455 202.864 197.99C196.199 202.455 194.031 204.862 190.878 209.007C186.353 213.282 183.912 217.212 181.699 222.955C180.125 227.04 178.962 232.661 179.102 237.051C179.102 237.051 179.007 248.876 179.008 252.046V252.047C179.008 252.047 178.893 274.251 178.893 279.662C178.893 282.696 178.872 285.731 178.852 288.766C178.798 296.731 178.744 304.696 179.059 312.647C180.161 340.423 204.047 364.217 232.112 364.069C262.535 363.908 292.96 363.962 323.385 364.015C330.42 364.027 337.455 364.04 344.491 364.049C355.278 364.064 365.719 362.421 375.046 356.804C392.003 346.594 401.884 331.409 402.681 311.664C403.225 298.192 403.113 284.695 403.002 271.196C402.936 263.21 402.87 255.224 402.94 247.242C403.063 233.177 399.909 220.201 390.903 209.191C383.858 200.578 375.869 192.775 364.352 190.955C344.26 214.599 283.502 225.455 283.502 225.455Z" fill="#FEFBF2"/>
<path d="M213.352 190.955C215.355 190 218.999 192.909 220.358 194.619C228.815 200.556 237.49 206.591 246.921 210.632C258.582 215.629 271.129 217.432 284.124 217.323C301.623 217.177 318.51 215.147 333.793 206.288C341.292 201.942 355.999 190.909 355.999 190.909L364.352 190.955C344.94 214.987 303.149 225.455 283.502 225.455C267.149 225.455 226.554 220.204 213.352 190.955Z" fill="#EFCBCF"/>
<path d="M250.499 482.909C253.275 475.834 258.968 471.383 265.44 468.046C267.061 467.211 268.73 466.469 270.992 465.366C275.333 464.34 279.274 463.663 283 462.955C291.891 465.169 295.912 472.087 297.63 479.93C299.437 488.181 299.386 496.71 299.497 505.488C297.282 505.602 295.591 505.287 294.023 505.443C289.624 505.88 285.227 506.43 280.872 507.186C268.601 509.317 260.07 503.301 253.608 494.001C251.521 490.998 251.435 486.712 250.499 482.909Z" fill="#6A4C50"/>
<path d="M299.224 511.455C298.274 515.06 296.446 518.829 294.773 522.15C291.489 525.708 288.458 530.665 282 529.91C279.922 529.067 278.721 527.606 276.921 527.026C265.201 523.251 255.848 516.698 250.311 505.307C246.722 497.924 246.597 490.565 250.499 482.909C251.701 486.449 251.521 490.998 253.608 494.001C260.07 503.301 268.601 509.317 280.872 507.186C285.227 506.43 289.624 505.88 294.023 505.443C295.591 505.287 297.534 505.284 299.497 505.488C299.658 507.267 299.406 509.323 299.224 511.455Z" fill="#542F3F"/>
<path d="M422 97.9548C422.02 110.57 423.999 136.409 420.499 138.909C419.177 138.422 417.746 137.957 416.492 137.332C411.658 134.919 406.619 132.127 401.685 129.946C398.545 128.559 397.69 126.408 397.71 123.297C397.771 113.844 397.635 103.987 397.999 93.9095C400.885 93.4312 401.493 95.3047 404.002 95.4548C409.096 95.7597 414.192 91.2144 418.502 94.9548C419.373 95.7104 420.994 97.3552 422 97.9548Z" fill="#FCA199"/>
<path d="M197 88.9548C199.632 99.0087 202.551 108.811 204.999 118.909C205.866 122.484 201.139 130.952 197.999 132.909C195.914 134.21 194.409 135.337 192.499 136.909C189.589 139.305 187.158 139.318 186.054 135.503C182.702 123.928 179.097 112.238 175.833 100.638C175.388 99.0542 174.964 96.8453 174.999 94.9095C177.71 98.7123 180.714 97.6193 183.57 95.8275C187.758 93.1999 189.91 86.0004 197 88.9548Z" fill="#FCA199"/>
<path d="M220 612.955C221.089 607.076 228.355 602.965 236.124 600.678C250.339 596.494 264.91 599.443 279.077 597.083C297.002 588.955 312.03 580.088 332.801 582.121C338.671 582.696 344.732 584.243 350.999 585.419C349.75 587.434 348.645 590.825 345.997 590.955C327.38 587.167 310.814 588.478 294.997 600.455C292.779 602.135 290.108 603.581 288.997 605.955C286.995 610.235 283.427 610.829 279.997 609.455C264.519 603.254 248.673 602.672 232.954 606.961C228.543 608.164 224.541 610.869 220 612.955Z" fill="#C9787A"/>
<path d="M283 462.955C279.286 464.029 275.107 464.645 270.999 465.409C271.779 459.506 276.69 455.996 281.113 452.957C291.872 445.565 304.337 442.195 316.965 440.389C330.219 438.493 343.682 437.468 357.068 437.319C365.391 437.226 374.732 439.344 382.999 440.909C384.453 441.492 385.532 443.921 386.999 445.409C384.747 446.305 381.716 448.071 379.761 447.634C353.787 441.831 328.324 445.477 302.999 451.409C296.963 452.823 292.189 456.285 286.497 458.955C285.268 459.531 283.912 461.362 283 462.955Z" fill="#EA9F8F"/>
<path d="M422 97.9548C420.964 97.817 419.373 95.7104 418.502 94.9548C414.192 91.2144 409.096 95.7597 404.002 95.4548C401.493 95.3047 400.864 93.9002 397.999 93.9095C397.336 89.0088 396.93 83.4604 396.999 77.9095C405.426 71.6873 409.952 71.4696 420 75.9548C420.608 82.9163 421.422 90.5316 422 97.9548Z" fill="#F68A8A"/>
<path d="M197 88.9548C189.897 86.4224 187.758 93.1999 183.57 95.8275C180.714 97.6193 177.677 99.1115 174.999 94.9095C173.974 89.1008 173.301 83.113 172.999 76.9095C180.813 69.8168 186.587 73.5703 195 75.9548C195.686 80.0155 196.328 84.4721 197 88.9548Z" fill="#F68A8A"/>
<path fill-rule="evenodd" clip-rule="evenodd" d="M482 278C493.072 282.908 501.502 293.455 501.504 304.909C503.502 318.955 499.002 325.455 496.504 327.409C494.502 330.455 475.634 339.326 473.504 339.326C470.502 339.955 456.517 340.507 448.004 341.409C446.492 350.71 461.002 364.455 462.002 370.955C464.287 375.078 465.503 378.543 465.504 380.41C465.504 380.41 503.136 570.6 458.504 652.41C432.083 709.667 355.193 697.836 304.062 694.799C296.186 693.748 285.771 691.18 275.502 688.135C256.435 682.482 237.873 675.184 236.999 672.91C236.712 667.462 237.525 665.444 237.999 662.91C238.164 662.028 239 659.955 239 659.955C250.171 661.834 260.733 666.037 270.713 671.215C276.589 674.264 283.741 675.271 290.101 676.164C295.841 676.977 301.569 677.832 307.296 678.731L307.298 678.732C312.304 679.518 317.647 680.395 322.662 681.124C333.532 682.705 348.151 683.216 359.116 682.26C363.453 681.881 367.817 681.724 372.178 681.613H372.179C377.209 681.484 382.575 681.445 387.561 680.907C392.101 680.418 396.058 677.787 400.521 676.324C409 672.5 424.369 670.096 433.119 658.691C438.42 651.751 445.543 642.786 446.823 632.453C447.95 623.355 447.5 613 448.576 605.146C448.89 599.224 448.847 593.253 448.78 587.325V587.322C448.736 583.496 448.693 579.669 448.758 575.847C448.837 571.253 449.008 566.659 449.179 562.066C449.406 555.96 449.634 549.854 449.644 543.747C449.655 536.885 449.344 530.021 449.033 523.158C448.428 509.789 447.843 499.319 448.291 486.175C448.438 481.863 448.585 477.55 448.604 473.237C448.625 468.617 447.719 463.989 447.776 459.372C447.91 448.429 448.199 437.488 448.487 426.548L448.487 426.545C448.567 423.536 448.646 420.527 448.722 417.517C448.804 414.296 448.918 411.075 449.033 407.854L449.033 407.846C449.259 401.52 449.484 395.194 449.458 388.869C449.413 377.714 449.033 366.554 448.452 355.413C448.138 349.396 439.435 343.217 440.846 337.307C440.598 333.152 443.168 331.445 446.568 331.085C456.334 330.048 465.811 328.745 474.984 324.319C485.874 319.064 491.11 314.353 491.5 302.5C491.5 298.5 485.782 283.362 482 278Z" fill="#FDC5A6"/>
<path d="M359.999 550.91C361.999 550.41 398.999 537.41 400.942 536.401C402.499 535.593 404.948 533.795 407.499 532.91C408.642 533.687 409.882 534.89 410.497 535.455C409.739 537.213 408.262 538.332 407 539.955C401.994 547.86 373.787 553.246 364.999 555.91C363.176 554.143 361.173 552.501 359.999 550.91Z" fill="#C9787A"/>
<path d="M420 75.9548C409.952 71.4696 405.426 71.6873 396.999 77.9095C397.329 74.8042 397.602 71.2981 399.039 68.5602C400.933 64.9524 404.898 62.4371 409.499 63.4095C415.972 64.7776 418.685 68.5601 420 75.9548Z" fill="#C9787A"/>
<path d="M195 75.9548C186.587 73.5703 180.813 69.8168 172.999 76.9095C172.842 75.1607 172.901 71.5744 173.502 69.9548C174.302 67.801 179.002 61.9548 183.994 63.1079C190.385 63.7487 193.726 70.2952 195 75.9548Z" fill="#C9787A"/>
<path d="M286.497 549.455C285.924 550.986 284.99 552.251 283.499 553.91C273.329 553.698 263.617 553.917 253.909 553.412C253.891 552.179 254.049 549.547 253.998 547.955C264.747 547.901 275.262 548.982 286.497 549.455Z" fill="#A8A3A7"/>
<path d="M20.499 647.91C22.6213 640.432 28.3782 635.846 34.913 631.235C37.8116 629.72 40.1522 628.51 42.9356 627.263C56.1159 624.844 61.2269 627.22 65.8958 639.148C67.9695 644.447 69.192 650.26 69.999 655.91C64.3946 659.081 58.3179 662.247 53.1927 665.568C46.9828 669.592 34.1892 668.269 28.5444 663.51C23.5906 659.334 22.0553 653.576 20.499 647.91Z" fill="#6A4C50"/>
<path fill-rule="evenodd" clip-rule="evenodd" d="M209.978 187.671C211.072 190.014 213.352 190.955 213.352 190.955C215.056 190.142 218.215 193.102 220.358 194.619C220.507 194.724 220.202 194.51 220.358 194.619C228.815 200.556 237.49 206.591 246.921 210.632C258.582 215.629 271.129 217.432 284.124 217.323C301.623 217.177 318.51 215.147 333.793 206.288C341.585 201.772 348.752 196.234 355.999 190.909L364.352 190.955C365.507 187.044 366.439 182.302 367.499 178.409C368.622 174.289 368.926 173.009 369.999 167.909C366.002 173.455 355.649 179.66 350.002 182.455C350.002 182.455 332.002 199.955 280.124 198.903C258.616 198.466 237.81 191.746 224.951 180.975C217.002 172.955 199.433 141.955 199.433 141.955C197.999 148.904 198.653 158.933 200.363 164.425C202.84 172.383 206.414 180.038 209.978 187.671Z" fill="#EA9F8F"/>
<path fill-rule="evenodd" clip-rule="evenodd" d="M440.848 230.455C442.502 248.455 445 258.5 445 258.5C448.5 269.447 456.325 267.81 469.5 272C464.623 257.818 461.95 252.218 453.14 239.958C451.398 237.534 453.721 226.509 456.502 226.155C463.485 225.267 463.394 224.622 470.454 225.505C475.74 226.166 480.502 224.955 485.238 221.779C489.906 219.909 492.188 215.985 494.465 212.068C497.004 207.702 500.909 205.131 501.637 200.301L501.639 200.29L501.639 200.289C502.306 195.864 502.919 191.776 505 188.909C503.428 184.194 496.058 175.9 491 173.955C491.34 177.881 491.446 181.81 491.884 185.746C492.264 189.162 492.643 192.625 492.596 196.035C492.472 205.155 482.249 210.807 474.982 215C469.071 218.41 460.812 215.892 454.502 216.455C439.502 216.455 440.848 230.455 440.848 230.455Z" fill="#FDC5A6"/>
<path fill-rule="evenodd" clip-rule="evenodd" d="M201.999 135.909C203.351 138.978 204.386 142.15 205.931 145.155C212.757 158.438 225.515 166.786 237.499 174.909C244.061 179.358 250.423 181.972 258.121 184.38C289.644 194.238 320.047 186.215 349.999 175.909C352.549 173.57 376.002 157.455 369.999 167.909C366.043 174.8 356.931 179.025 350.002 182.455C350.002 182.455 339.502 193.955 300.502 198.903C275.535 199.797 244.591 198.491 224.951 180.975C221.002 178.455 199.502 143.955 199.433 141.955C199.502 140.455 201.293 136.044 201.999 135.909Z" fill="#FDC5A6"/>
<path fill-rule="evenodd" clip-rule="evenodd" d="M417.499 520.41C408.052 522.997 398.743 526.103 389.264 528.558C368.084 534.028 342.488 538.498 321.117 531.981C319.105 531.368 317.069 530.817 315.03 530.265C308.13 528.399 300.966 526.522 294.773 522.15C294.007 522.867 293.293 523.665 292.573 524.469C290.043 527.292 287.094 530.206 282 529.91C283.305 532.774 285.086 535.596 287.263 537.633C288.728 539.003 290.616 539.93 292.495 540.852C293.179 541.188 293.861 541.523 294.522 541.879C298.095 543.802 301.682 545.7 305.268 547.598C306.745 548.38 308.222 549.162 309.698 549.945C314.723 550.018 321.015 551.759 326.499 551.91C338.318 552.188 348.766 553.253 359.999 550.91C374.53 547.878 388.196 543.089 400.942 536.401C403.12 535.258 405.239 533.952 407.499 532.91C408.269 533.73 409.602 535.009 410.497 535.455C414.08 531.681 416.843 528.275 417 526C417.158 523.725 417.526 521.275 417.499 520.41Z" fill="#EA9F8F"/>
<path d="M20.499 647.91C22.2685 653.269 23.5906 659.334 28.5444 663.51C34.1892 668.269 46.9828 669.592 53.1927 665.568C58.3179 662.247 68.002 656.455 69.9843 655.91C70.502 656.955 68.9488 669.447 68.848 671.657C68.5153 678.947 63.9912 685.463 57.0037 687.91C41.4852 685.862 29.1292 679.056 21.6662 665.026C18.8751 659.779 18.457 653.856 20.499 647.91Z" fill="#542F3F"/>
<path d="M97.5367 489.742C97.9776 477.757 105.141 472.995 116.138 476.691C117.655 477.201 119.757 476.839 121.317 476.209C128.809 473.183 134.938 474.577 140.61 481.154C134.566 487.231 136.571 492.938 141.219 499.117C144.199 503.079 140.914 506.985 138.688 510.356C136.026 514.387 132.043 516.157 127.473 514.161C123.931 512.614 121.054 512.673 117.594 514.428C113.428 516.542 109.748 514.358 106.858 511.378C101.152 505.494 97.4835 498.611 97.5367 489.742Z" fill="#FEFBF2"/>
<path d="M127.086 459.438C128.296 465.141 126.959 468.865 122.276 471.565C120.697 472.475 118.656 472.585 116.827 473.06C113.002 465.955 118.718 458.814 127.086 459.438Z" fill="#FEFBF2"/>
<path d="M42.9356 627.263C44.4037 624.789 45.8401 621.588 48.3089 619.884C58.8218 612.63 70.8302 608.342 83.9991 605.91C86.3529 606.008 88.1823 606.163 89.999 606.91C92.3103 608.389 94.7634 610.827 97.0029 611.91L110.502 618.455L127.003 632.91C127.003 632.91 135.614 644.617 134.523 651.455C133.199 657.896 109.411 659.256 105.158 659.666C95.7796 660.571 86.4749 657.956 77.174 657.242C75.3961 657.105 70.8019 657.637 69.999 655.91C68.7069 650.023 67.9695 644.447 65.8958 639.148C61.2269 627.22 56.1159 624.844 42.9356 627.263Z" fill="#FFD8AF"/>
<path fill-rule="evenodd" clip-rule="evenodd" d="M69.499 663.91C68.7778 663.945 69.824 659.515 69.8648 659.022C69.9194 658.364 69.9843 655.91 69.9843 655.91C71.502 656.455 74.8077 657.061 77.1729 657.242C86.4738 657.956 95.7796 660.571 105.158 659.666C109.169 659.279 133.443 656.713 134.523 651.455C135.614 644.617 127.003 632.91 127.003 632.91C127.003 632.91 141.502 646.455 142.503 652.91C143.278 654.885 144.002 656.955 144.089 658.741C145.861 663.829 143.499 667.333 137.73 667.668C131.806 668.012 126.28 669.84 120.404 670.193C110.409 670.792 100.357 670.868 90.3397 670.895C85.2624 670.909 80.261 670.089 75.1859 670.088C71.4199 670.088 70.0022 666.77 69.499 663.91Z" fill="#FDC5A6"/>
<path d="M94.9947 606.673C101.264 609.677 105.517 613.637 110.502 618.455C97.502 615.455 101.06 613.871 97.0029 611.91C94.7634 610.827 91.8912 608.437 89.999 606.91C91.7279 606.493 93.5914 606.691 94.9947 606.673Z" fill="#FDC5A6"/>
<path fill-rule="evenodd" clip-rule="evenodd" d="M485.648 457.877L485.648 457.828V457.827C486.499 444.84 485.859 424.447 485.268 410.077V410.074C485.074 405.339 484.879 400.604 484.863 395.867C484.847 391.153 484.961 386.437 485.075 381.721C485.233 375.165 485.391 368.61 485.201 362.063C485.078 357.843 485.68 355.446 489.648 353.409C509.522 343.205 517.85 318.168 508.743 297.808C504.436 288.18 497.491 281.09 488.985 275.344C485.737 273.151 484.34 270.642 484.573 266.649C484.911 260.848 484.922 254.993 484.533 249.196C484.26 245.147 485.626 242.969 489.234 241.1C508.185 231.284 515.807 206.408 505 188.909C501.002 191.455 502.152 197.022 501.656 200.312L501.656 200.313L501.656 200.314L501.656 200.315L501.655 200.316L501.639 200.289C500.002 205.455 496.98 207.789 494.483 212.083C492.206 216.001 488.108 220.188 485.256 221.794C479.502 223.455 476.42 226.265 470.472 225.521C458.777 224.058 445.502 224.455 453.14 239.958C461.929 252.189 464.137 258.07 469.5 272L482 278C482 278 501.499 288.94 501.504 304.909C500.461 316.554 499.502 323.455 496.504 327.409C493.502 330.455 478.502 337.955 473.504 339.326C469.502 339.955 455.401 340.624 447.999 341.409C446.449 350.946 457.799 363.372 462.002 370.955C462.002 370.955 465.208 377.056 465.504 380.41C466.054 392.488 464.8 405.31 464.67 417.423C464.572 426.57 463.715 435.69 463.843 444.84C463.93 451.033 464.442 457.198 464.644 463.383V463.388C464.914 468.076 465.185 472.765 465.338 477.456C465.626 486.31 464.871 495.097 465.36 503.994C465.627 508.85 465.894 513.704 465.967 518.562C466.354 544.034 471.418 576.159 465.042 600.99C463.502 609.955 465.859 622.816 464.814 632.297C463.046 648.322 454.133 662.717 441.605 672.642C433.092 679.387 424.357 685.753 413.161 687.914C409.555 688.61 406.026 689.75 402.501 690.888C398.41 692.209 394.325 693.529 390.128 694.152C384.298 695.017 378.357 695.121 372.413 695.226H372.412C369.362 695.279 366.311 695.333 363.273 695.489C360.357 695.639 357.44 695.882 354.524 696.124C349.37 696.553 344.219 696.981 339.073 696.899C327.387 696.71 304.062 694.799 304.062 694.799C294.134 693.424 285.27 690.562 275.502 688.135C270.115 686.797 264.128 684.482 258.999 682.41C257.42 681.771 252.148 679.866 250.499 679.41C246.137 678.203 246.357 676.257 242.075 674.957C240.361 674.436 238.592 673.771 236.999 672.91C233.035 679.508 230.677 688.47 222.965 691.625C222.284 691.964 221.021 692.469 220.022 692.926C205.818 687.43 195.859 675.226 186.999 662.91C186.999 662.91 184.76 651.807 187.744 644.659C190.052 640.871 194.499 632.91 194.499 632.91C194.499 632.91 205.604 628.015 211 624.955C214.283 620.579 217.576 616.703 220.499 612.91C221.932 606.887 228.459 603.114 236.199 600.808C244.318 598.39 252.553 598.335 260.762 598.28C266.873 598.239 273.054 598.098 279.077 597.083C281.804 596.623 284.282 595.357 286.855 593.985C300.529 586.696 317.173 580.572 332.801 582.121C336.79 582.516 340.735 583.356 344.822 584.227L344.825 584.227C346.729 584.633 349.015 585.042 350.999 585.419C349.838 585.432 346.558 589.824 345.997 590.955C345.976 591.644 366.956 599.138 368.581 599.936C374.171 602.732 379.807 605.408 385.482 608.026C387.441 608.93 389.926 608.046 391.999 608.026C391.999 601.41 381.797 597.829 375.497 594.468C369.462 591.248 364.208 588.815 357.997 585.955C360.638 583.664 365.336 579 365.336 579C376.205 569.846 387.396 560.55 398.234 550.8C401.678 547.7 404.157 543.591 407 539.955C393.185 545.86 379.245 551.105 364.999 555.91C363.797 562.125 362.042 568.167 355.3 570.142C355.3 570.142 344.072 572.679 338.401 573.877C335.324 574.527 332.249 575.2 329.175 575.873C320.279 577.82 311.381 579.768 302.398 581.152C297.417 581.92 292.49 583.084 287.548 584.251L287.544 584.252C276.652 586.826 265.671 589.696 253.909 588.095C249.154 587.967 244.623 588.933 239.923 588.948C204.282 589.068 168.642 588.992 133.002 589.025C132.895 594.39 132.699 599.652 132.699 605.019C112.765 605.019 113.409 605.026 113.179 605.016C107.324 605.115 101.08 605.939 94.9947 606.673C100.675 610.668 105.558 613.232 110.502 618.455L127.003 632.91C127.003 632.91 141.502 647.455 142.503 652.91C143.244 654.798 143.525 656.799 144.089 658.741C145.502 663.955 143.499 667.333 137.73 667.668C131.857 668.009 126.231 669.843 120.404 670.193C105.231 671.103 90.2983 670.09 75.1859 670.088C71.0747 670.088 71.6248 663.348 69.499 663.91C68.8836 666.55 68.9766 668.838 68.848 671.657C68.5153 678.947 63.934 685.115 56.999 687.909C58.9699 689.799 60.6608 692.742 63.7867 692.927C71.3934 693.378 76.3815 697.061 79.8023 703.489C89.9718 722.591 126.739 721.867 142.273 712.839C148.053 709.48 153.042 705.03 158.402 701.076C160.871 704.527 163.036 708.199 165.857 711.388C180.541 727.983 199.008 733.351 220.298 728.372C227.329 726.727 234.533 724.438 239.52 718.424L239.522 718.425L239.617 718.359C241.643 716.955 244.226 715.165 245.911 713.534L246.015 713.596C247.385 714.096 248.72 714.622 250.034 715.139L250.038 715.14L250.045 715.143L250.046 715.144L250.048 715.144C253.99 716.695 257.736 718.169 261.61 718.678C268.91 719.636 275.118 721.145 277.052 729.416C279.685 740.682 299.836 748.009 309.451 749.409C325.077 751.685 339.059 748.287 350.708 737.249C353.681 734.431 356.21 731.144 360.509 726.312C364.683 735.108 371.4 741.553 380.893 744.48C392.92 748.189 405.288 748.595 417.32 743.061C430.316 737.085 439.57 728.322 441.769 713.489C441.944 712.308 443.207 710.788 444.333 710.329C453.92 706.421 461.854 700.253 468.64 692.61C476.709 683.521 482.057 672.953 484.749 661.073C494.374 661.404 504.731 667.076 512.159 656.647C514.035 654.014 515.503 653.516 518.202 655.132C527.578 660.747 537.421 661.339 547.82 658.153C558.932 654.749 568.368 642.942 567.616 631.366C567.279 626.176 564.783 621.429 563.287 616.519C563.308 616.5 563.333 616.479 563.361 616.454C571.49 609.434 578.788 600.737 581.842 590.255C586.24 578.125 589.414 566.476 586.522 553.425L577.541 580.455L566.726 597.642L540.941 615.059L517.929 614.044L506.003 608.41L501.003 603.41L496.503 569.91L495.522 538.925C492.809 540.894 490.309 542.914 487.938 544.842C487.919 544.792 487.897 544.753 487.87 544.726C487.499 515.91 485.648 487.068 485.648 457.877Z" fill="#EA9F8F"/>
<path d="M133.002 589.025C133.002 594.085 132.699 600.189 132.699 605.019C126.7 605.019 120.164 605.004 113.179 605.016C106.896 605.483 101.08 605.939 94.9947 606.673C93.3224 606.969 91.9193 606.986 90.0969 607.051C87.9546 606.704 86.1138 606.313 83.9991 605.91C85.0809 601.82 87.3443 599.145 91.0835 597.595C101.347 593.341 116.999 594.91 121.999 593.91C123.573 593.565 125.502 592.61 126.999 591.91C126.502 590.455 123.44 590.078 122.32 588.958C124.32 588.958 132.002 589.025 133.002 589.025Z" fill="#C9787A"/>
<path fill-rule="evenodd" clip-rule="evenodd" d="M157 338.955C160.824 336.628 158.301 334.559 155.999 333.409C143.355 327.095 124.948 321.491 123.999 304.909C123.73 300.213 123.642 295.414 122.999 290.909C120.654 295.708 118.052 300.799 115.999 305.409C116.787 306.219 117.855 306.582 118.408 307.72C120.909 312.866 125.679 323.649 125.679 323.649C125.672 323.653 127.721 326.024 127.718 326.423C129.484 329.935 130.766 330.296 133.576 332.345C136.497 334.475 143.535 337.03 150 338.455C151.834 336.198 154.786 337.759 157 338.955Z" fill="#FDC5A6"/>
<path fill-rule="evenodd" clip-rule="evenodd" d="M496.503 569.91C498.455 572.47 501.088 574.581 502.303 577.646C505.424 585.52 509.588 593.245 516.265 597.749C521.439 601.24 528.195 601.59 534.303 601.101C539.936 600.402 546.693 598.771 552.529 595.304L552.887 595.092C559.273 591.302 564.234 585.517 566.889 578.148C567.575 576.246 568.93 574.48 570.31 572.951C575.203 567.528 576.014 560.666 576.553 553.983C576.796 550.971 576.449 547.917 576.101 544.856C575.867 542.795 575.633 540.729 575.577 538.671C575.546 537.483 577.03 536.254 578.175 535.045C580.224 537.816 582.062 541.083 583.503 544.41C583.488 544.437 583.473 544.465 583.458 544.493C584.66 547.317 585.574 550.012 586.503 553.41C585.502 563.455 581.502 572.455 577.541 580.455C575.502 585.955 569.536 592.313 566.726 597.642C565.503 600.41 547.483 613.91 540.941 615.059C533.256 616.409 525.935 615.869 517.929 614.044C512.427 612.79 509.143 611.546 506.003 608.41C504.468 606.877 502.793 604.703 501.003 603.41C493.174 597.752 490.525 576.769 496.503 569.91Z" fill="#FDC5A6"/>
<path d="M382.819 247.184C385.501 250.686 388.579 253.78 390.071 257.508C391.456 260.966 391.953 265.232 391.36 268.904C390.764 272.597 387.702 275.418 383.397 274.999C379.307 274.602 376.999 271.931 376.217 267.889C374.904 261.101 369.942 257.817 363.91 256.326C358.14 254.899 352.686 256.797 349.358 261.675C347.225 264.803 346.669 269.006 345.42 273.1C342.97 276.547 340.319 279.597 335.868 277.614C331.511 275.673 330.379 271.808 330.563 267.287C331.075 254.655 342.421 242.455 355.702 239.93C365.884 237.994 374.686 240.524 382.819 247.184Z" fill="#542F3F"/>
<path d="M255.491 285.909C248.449 283.127 244.959 278.093 245.815 272.511C246.168 270.213 248.352 267.696 250.4 266.298C252.425 264.915 254.422 265.768 255.65 268.72C258.517 275.611 264.027 276.705 268.181 271.508C269.904 269.351 270.002 267.246 270.002 267.246C265.668 265.45 261.026 260.076 262.172 255.957C263.338 251.77 267.34 251.504 271.28 251.799C274.365 252.031 277.494 251.749 280.601 251.625C284.501 251.469 288.516 251.111 289.908 256.054C291.028 260.029 288.835 264.024 284.524 266.125C283.652 266.55 282.707 266.821 281.574 267.246C283.029 271.454 285.473 274.341 289.869 273.834C291.856 273.605 294.542 272.001 295.328 270.293C297.079 266.484 299.013 263.816 303.539 265.205C307.503 266.422 309.548 271.399 307.502 275.588C306.002 278.955 303.002 280.955 301.502 281.955L295.328 283.733C294.455 283.733 280.884 285.965 275.925 278.197C270.36 284.787 262.857 285.888 255.491 285.909Z" fill="#542F3F"/>
<path d="M301.999 294.909C304.496 307.626 300.523 321.748 290.539 328.406C281.52 334.42 266.45 333.499 260.499 318.909C261.002 313.455 267.35 299.838 274.999 296.909C280.9 296.56 286.602 296.398 292.088 295.99C295.323 295.75 298.771 295.249 301.999 294.909Z" fill="#FCA199"/>
<path d="M192.114 261.65C187.764 261.879 184.638 259.933 185.288 254.365C187.138 241.822 201.663 237.488 211.568 239.345C224.428 241.756 233.538 249.518 237.108 262.605C237.784 265.084 238.002 265.631 238.002 270.293C238.002 274.955 235.002 278.955 229.502 278.955C224.002 278.955 221.453 270.821 220.682 267.058C219.993 265.25 219.4 264.127 218.807 263.004C215.123 256.97 208.39 254.319 201.623 256.729C198.814 258.378 195.388 261.478 192.114 261.65Z" fill="#542F3F"/>
<path d="M364.502 286.909C373.748 286.909 380.002 295.326 380.002 302.221C380.002 312.679 371.852 318.909 364.502 318.909C357.065 318.909 347.502 311.997 347.502 302.221C347.502 290.665 356.227 286.909 364.502 286.909Z" fill="#FCA199"/>
<path d="M206.002 319.955C195.002 319.955 189.002 311.647 189.002 303.955C189.002 293.909 198.002 287.955 206.002 287.955C214.002 287.955 221.502 294.99 221.502 303.955C221.502 311.647 217.002 319.955 206.002 319.955Z" fill="#FCA199"/>
<path d="M274.999 296.909C281.83 289.998 291.819 289.097 301.502 287.955C301.502 287.955 301.905 292.431 301.999 294.909C298.737 295.689 295.323 295.75 292.088 295.99C286.602 296.398 280.9 296.56 274.999 296.909Z" fill="#F68A8A"/>
<path fill-rule="evenodd" clip-rule="evenodd" d="M274.999 296.909C283.502 289.455 292.484 289.337 301.502 287.955C301.503 287.214 301.505 283.736 301.502 281.955L295.328 283.733C294.455 283.733 280.884 285.965 275.925 278.197C270.628 284.469 263.171 285.41 255.491 285.909C255.819 293.634 256.088 300.643 256.499 307.909C256.499 308.909 259.876 317.605 260.499 318.909C262.127 310.708 268.646 299.342 274.999 296.909Z" fill="#C9787A"/>
<path fill-rule="evenodd" clip-rule="evenodd" d="M224 407.955C220.174 411.035 216.291 413.577 213 416.909C221.409 463.189 226.966 511.004 239.499 556.41C239.095 569.253 234.941 573.979 222.469 574.029C221.788 574.032 221.107 574.029 220.426 574.027C219.94 574.025 219.455 574.023 218.97 574.023L176.306 574.031C150.139 574.036 123.973 574.042 97.8057 574.045C92.8042 574.046 87.8027 574.043 82.8011 574.04C70.4228 574.032 58.0445 574.023 45.6665 574.076C41.5796 574.094 37.7513 573.962 34.585 570.734C33.6036 569.733 31.7431 569.902 30.54 570.059C34.7355 582.221 42.9279 588.51 55.3386 588.622C66.2161 588.72 77.0939 588.778 87.9718 588.835C92.6615 588.86 97.3512 588.885 102.041 588.913C102.041 588.913 111.603 588.984 122.32 588.958C161.493 589.606 200.746 589.08 239.923 588.948C242.044 588.941 253.991 587.892 253.909 588.095C265.671 589.696 276.633 587.106 287.525 584.532C292.468 583.364 297.397 582.2 302.38 581.432C311.363 580.048 320.279 577.82 329.175 575.873C332.249 575.2 335.324 574.527 338.401 573.877C338.401 573.877 351.057 571.385 355.3 570.142C362.042 568.167 364.446 562.3 364.999 555.91C363.556 554.134 361.634 552.481 359.999 550.91C343.169 550.651 326.204 550.122 309.334 549.97C301.593 549.86 293.876 549.589 286.497 549.455C285.469 550.819 284.522 552.169 283.499 553.91C285.847 554.938 288.302 555.677 290.664 556.665C298.667 557.34 308.195 557.978 316.672 558.353C316.675 558.368 316.678 558.384 316.682 558.399L323.999 559.91C322.301 560.323 320.973 560.914 319.506 561.283C316.53 562.033 313.931 562.688 311.308 563.225C309.025 563.693 306.74 564.15 304.45 564.609C298.246 565.851 291.803 566.944 285.499 568.41C285.499 568.41 288.242 572.371 289.999 574.91C289.999 574.91 287.356 579.898 284.502 580.455C278.002 578.455 277.999 578.409 278.499 570.409C272.371 570.149 264.998 570.306 257.999 570.41C256.499 568.91 255.499 566.41 254.999 564.91C254.436 560.829 254.254 557.661 253.909 553.412C253.895 551.73 254.276 549.88 253.998 547.955C252.043 539.332 249.65 531.83 248.059 523.879C245.406 510.618 242.768 497.355 240.13 484.092C235.949 463.076 231.769 442.06 227.529 421.057C226.623 416.565 225.625 412.267 224 407.955Z" fill="#8B7887"/>
<path d="M323.999 559.91C320.499 561.91 315.416 562.608 311.499 563.409C303.028 565.144 294.522 566.34 285.499 568.41C282.914 569.223 280.548 570.011 278.499 570.409C271.794 570.542 265.079 570.451 257.999 570.41C256.499 568.91 255.499 566.91 254.999 564.91C266.915 561.928 278.917 559.287 290.664 556.665C300.665 557.079 314.7 555.26 323.999 559.91Z" fill="#BEB2BD"/>
<path d="M290.664 556.665C279.004 559.653 267.129 562.208 254.999 564.91C254.267 561.188 254.254 557.662 253.909 553.412C263.621 553.468 273.323 553.322 283.499 553.91C286.239 554.613 288.307 555.678 290.664 556.665Z" fill="#542F3F"/>
<path fill-rule="evenodd" clip-rule="evenodd" d="M417.499 520.41C417.271 521.546 417 526 417 526C420 525.5 420.93 522.157 421 521.5C421.052 521.014 420.929 522.037 421 521.5C422 520 421.956 514.326 420.745 513.096C418.685 511.007 414.639 509.71 411.629 510.003C407.366 510.417 403.079 514.172 399.148 513.689C392.712 512.9 386.956 514.742 381.271 516.606C379.092 517.32 376.922 518.076 374.731 518.632C359.573 522.473 344.554 520.395 329.632 519.332C322.539 518.827 315.559 516.707 308.577 514.632C305.457 513.704 302.354 512.242 299.224 511.455C297.877 515.075 296.028 518.496 294.773 522.15C300.966 526.522 308.13 528.399 315.03 530.265C317.069 530.817 319.105 531.368 321.117 531.981C342.488 538.498 368.084 534.028 389.264 528.558C398.53 526.166 412.502 521.955 417.499 520.41Z" fill="#FDC5A6"/>
<path d="M278.499 570.409C278.499 570.409 283.057 568.871 285.499 568.41C289.999 568.41 289.998 573.215 289.999 574.91C290.002 579.955 286.061 580.151 284.502 580.455C278.002 580.955 275.892 574.46 278.499 570.409Z" fill="#542F3F"/>
<path d="M495.503 538.91C502.148 533.573 515.213 537.415 520.069 541.96C522.184 543.941 523.814 546.081 526.503 548.91C531.083 534.024 540.239 525.218 555.455 524.021C565.012 523.269 572.642 527.231 578.175 535.045C577.133 536.565 575.546 537.483 575.577 538.671C575.714 543.786 576.959 548.942 576.553 553.983C576.014 560.666 575.203 567.528 570.31 572.951C568.93 574.48 567.575 576.246 566.889 578.148C564.234 585.517 559.273 591.302 552.887 595.092C542.811 601.072 526.955 604.962 516.265 597.749C509.588 593.245 505.424 585.52 502.303 577.646C501.17 574.788 498.433 572.894 496.503 569.91C496.209 559.421 495.803 548.952 495.503 538.91Z" fill="#FFD8AF"/>
<path d="M194.499 632.91C198.002 630.455 205.733 627.684 211 624.955C215.696 624.725 219.921 624.437 224.078 625.579C231.008 627.483 235.044 633.175 236.537 639.908C237.921 646.147 238.276 653.094 239 659.955C239 659.955 238.617 662.026 237.999 662.91C235.02 663.521 232.252 663.579 229.987 664.687C227.145 666.078 224.834 669.157 221.947 669.716C217.4 670.595 212.508 670.448 207.861 669.902C197.885 668.731 189.024 658.584 188.666 648.683C188.622 647.449 188.077 646.25 187.744 644.659C190.218 640.6 191.502 635.455 194.499 632.91Z" fill="#6A4C50"/>
<path d="M236.999 672.91C234.999 682.776 227.41 691.74 220.022 692.926C217.88 692.315 216.195 691.797 213.883 690.786C201.35 684.326 192.404 675.86 186.999 662.91C185.444 656.651 185.245 650.25 187.744 644.659C187.744 644.659 194.171 668.295 207.861 669.902C212.508 670.448 217.4 670.595 221.947 669.716C224.834 669.157 227.145 666.078 229.987 664.687C232.252 663.579 235.24 663.254 237.999 662.91C238.865 665.77 237.566 670.114 236.999 672.91Z" fill="#542F3F"/>
</svg>
